<svg width="24" height="24" viewBox="0 0 24 24" fill="none" xmlns="http://www.w3.org/2000/svg">
<path d="M19.6239 5.32631C18.2217 4.71242 16.7181 4.26013 15.1459 4.00109C15.1173 3.99609 15.0887 4.00858 15.0739 4.03357C14.8805 4.36175 14.6663 4.78988 14.5163 5.12639C12.8254 4.88484 11.1431 4.88484 9.48679 5.12639C9.33676 4.7824 9.11478 4.36175 8.92053 4.03357C8.90578 4.00941 8.87718 3.99692 8.84855 4.00109C7.27725 4.2593 5.7736 4.71159 4.37052 5.32631C4.35838 5.33131 4.34797 5.33965 4.34106 5.35047C1.48894 9.4161 0.707629 13.3818 1.09092 17.2983C1.09265 17.3175 1.10392 17.3358 1.11953 17.3475C3.00127 18.666 4.82406 19.4665 6.61301 19.9971C6.64164 20.0054 6.67197 19.9954 6.69019 19.9729C7.11337 19.4215 7.49059 18.8401 7.81402 18.2287C7.83311 18.1929 7.81489 18.1504 7.77588 18.1363C7.17754 17.9197 6.6078 17.6557 6.05975 17.3558C6.0164 17.3317 6.01293 17.2725 6.05281 17.2442C6.16814 17.1617 6.2835 17.0759 6.39363 16.9893C6.41355 16.9735 6.44131 16.9701 6.46474 16.9801C10.0652 18.5486 13.9631 18.5486 17.521 16.9801C17.5445 16.9693 17.5722 16.9726 17.593 16.9885C17.7032 17.0751 17.8185 17.1617 17.9347 17.2442C17.9746 17.2725 17.972 17.3317 17.9286 17.3558C17.3806 17.6615 16.8108 17.9197 16.2116 18.1354C16.1726 18.1496 16.1553 18.1929 16.1744 18.2287C16.5047 18.8393 16.882 19.4207 17.2973 19.9721C17.3147 19.9954 17.3459 20.0054 17.3745 19.9971C19.1721 19.4665 20.9949 18.666 22.8766 17.3475C22.8931 17.3358 22.9035 17.3183 22.9053 17.2992C23.364 12.7712 22.1369 8.83804 19.6525 5.3513C19.6465 5.33965 19.6361 5.33131 19.6239 5.32631ZM8.35169 14.9136C7.26771 14.9136 6.37454 13.964 6.37454 12.7979C6.37454 11.6317 7.25039 10.6822 8.35169 10.6822C9.46163 10.6822 10.3462 11.6401 10.3288 12.7979C10.3288 13.964 9.45296 14.9136 8.35169 14.9136ZM15.6619 14.9136C14.5779 14.9136 13.6847 13.964 13.6847 12.7979C13.6847 11.6317 14.5606 10.6822 15.6619 10.6822C16.7718 10.6822 17.6563 11.6401 17.639 12.7979C17.639 13.964 16.7718 14.9136 15.6619 14.9136Z" fill="white"/>
</svg>
