<svg width="40" height="40" viewBox="0 0 40 40" fill="none" xmlns="http://www.w3.org/2000/svg">
<mask id="mask0_673_457" style="mask-type:alpha" maskUnits="userSpaceOnUse" x="8" y="8" width="24" height="24">
<rect x="8" y="8" width="24" height="24" fill="#D9D9D9"/>
</mask>
<g mask="url(#mask0_673_457)">
<path d="M10 29C9.44772 29 9 28.5523 9 28C9 27.4477 9.44772 27 10 27H30C30.5523 27 31 27.4477 31 28C31 28.5523 30.5523 29 30 29H10ZM10 21C9.44772 21 9 20.5523 9 20C9 19.4477 9.44772 19 10 19H30C30.5523 19 31 19.4477 31 20C31 20.5523 30.5523 21 30 21H10ZM10 13C9.44772 13 9 12.5523 9 12C9 11.4477 9.44772 11 10 11H30C30.5523 11 31 11.4477 31 12C31 12.5523 30.5523 13 30 13H10Z" fill="white"/>
</g>
</svg>
