<svg width="24" height="24" viewBox="0 0 24 24" fill="none" xmlns="http://www.w3.org/2000/svg">
<path d="M14 12.0001C14 15.3138 11.0898 18 7.50011 18C3.91041 18 1 15.3138 1 12.0001C1 8.68644 3.91019 6 7.50011 6C11.09 6 14 8.68644 14 12.0001Z" fill="white"/>
<path d="M20 12C20 15.3131 18.6569 18 17 18C15.3431 18 14 15.3131 14 12C14 8.68688 15.3429 6 16.9998 6C18.6567 6 19.9998 8.68602 19.9998 12" fill="white"/>
<path d="M23 11.5C23 14.5367 22.5523 17 21.9999 17C21.4475 17 21 14.5374 21 11.5C21 8.46261 21.4477 6 21.9999 6C22.5521 6 23 8.46239 23 11.5Z" fill="white"/>
</svg>
