<svg width="24" height="24" viewBox="0 0 24 24" fill="none" xmlns="http://www.w3.org/2000/svg">
<path d="M5.12502 5.12501C5.88441 4.36561 5.88441 3.13439 5.12502 2.37499C4.36562 1.6156 3.1344 1.6156 2.37501 2.37499C1.61561 3.13439 1.61561 4.36561 2.37501 5.12501C3.1344 5.8844 4.36562 5.8844 5.12502 5.12501Z" stroke="white" stroke-width="2" stroke-linecap="round" stroke-linejoin="round"/>
<path d="M10.125 21.625C10.8844 20.8656 10.8844 19.6344 10.125 18.875C9.36562 18.1156 8.1344 18.1156 7.37501 18.875C6.61561 19.6344 6.61561 20.8656 7.37501 21.625C8.1344 22.3844 9.36562 22.3844 10.125 21.625Z" stroke="white" stroke-width="2" stroke-linecap="round" stroke-linejoin="round"/>
<path d="M21.625 10.125C22.3844 9.36561 22.3844 8.13439 21.625 7.37499C20.8656 6.6156 19.6344 6.6156 18.875 7.37499C18.1156 8.13439 18.1156 9.36561 18.875 10.125C19.6344 10.8844 20.8656 10.8844 21.625 10.125Z" stroke="white" stroke-width="2" stroke-linecap="round" stroke-linejoin="round"/>
<path d="M12.6876 12.6875C13.8267 11.5484 13.8267 9.70158 12.6876 8.56249C11.5485 7.4234 9.70163 7.4234 8.56254 8.56249C7.42345 9.70158 7.42345 11.5484 8.56254 12.6875C9.70163 13.8266 11.5485 13.8266 12.6876 12.6875Z" stroke="white" stroke-width="2" stroke-linecap="round" stroke-linejoin="round"/>
<path d="M5.12494 5.125L8.56245 8.56252" stroke="white" stroke-width="2" stroke-linecap="round" stroke-linejoin="round"/>
<path d="M9.25002 17.5L9.93752 14.0625" stroke="white" stroke-width="2" stroke-linecap="round" stroke-linejoin="round"/>
<path d="M17.5 9.25L14.0625 9.9375" stroke="white" stroke-width="2" stroke-linecap="round" stroke-linejoin="round"/>
</svg>
