<svg width="25" height="25" viewBox="0 0 25 25" fill="none" xmlns="http://www.w3.org/2000/svg">
<path fill-rule="evenodd" clip-rule="evenodd" d="M3.51989 11.8525C9.41718 9.26656 13.3592 7.59514 15.346 6.77519C20.9595 4.44151 22.1263 4.03154 22.8832 4C23.0408 4 23.4193 4.03154 23.6716 4.22075C23.8608 4.37844 23.9239 4.59919 23.9554 4.75687C23.9869 4.91455 24.0185 5.26145 23.9869 5.54528C23.6716 8.73044 22.3786 16.5199 21.6848 20.0835C21.401 21.5972 20.8333 22.1018 20.2972 22.1649C19.1303 22.2595 18.2158 21.3765 17.0805 20.6512C15.3145 19.4843 14.3053 18.759 12.5708 17.6237C10.584 16.2991 11.877 15.5738 13.0123 14.407C13.2961 14.0916 18.4996 9.3927 18.5942 8.9512C18.5942 8.88812 18.6258 8.69891 18.4996 8.6043C18.3735 8.50969 18.2158 8.54122 18.0897 8.57276C17.9004 8.6043 15.0622 10.4965 9.54332 14.2178C8.72338 14.7854 7.99804 15.0377 7.33578 15.0377C6.61045 15.0377 5.22285 14.6277 4.18215 14.2808C2.9207 13.8709 1.91154 13.6501 2.00615 12.9563C2.06922 12.6094 2.5738 12.231 3.51989 11.8525Z" fill="white"/>
</svg>
