<svg width="24" height="24" viewBox="0 0 24 24" fill="none" xmlns="http://www.w3.org/2000/svg">
<path d="M20.7477 7.48105C20.7611 7.67634 20.7611 7.87163 20.7611 8.06872C20.7611 14.074 16.2208 21 7.91863 21V20.9964C5.46614 21 3.06459 20.2926 1 18.9589C1.35661 19.0021 1.71501 19.0237 2.0743 19.0246C4.10672 19.0264 6.08105 18.3398 7.67999 17.0753C5.74857 17.0384 4.05489 15.7704 3.46321 13.9192C4.13979 14.0506 4.83693 14.0236 5.501 13.841C3.39529 13.4126 1.88036 11.5497 1.88036 9.38623C1.88036 9.36643 1.88036 9.34754 1.88036 9.32864C2.50778 9.68051 3.21028 9.8758 3.92886 9.8974C1.9456 8.56279 1.33427 5.90615 2.53191 3.82908C4.82352 6.6684 8.20463 8.3945 11.8342 8.57718C11.4704 6.99868 11.9674 5.34459 13.14 4.23496C14.9579 2.51427 17.8171 2.60246 19.5259 4.43205C20.5368 4.23136 21.5056 3.85788 22.3922 3.32872C22.0553 4.38075 21.3501 5.27439 20.4081 5.84226C21.3027 5.73606 22.1768 5.49488 23 5.1268C22.394 6.04114 21.6308 6.83759 20.7477 7.48105Z" fill="white"/>
</svg>
