<svg width="24" height="24" viewBox="0 0 24 24" fill="none" xmlns="http://www.w3.org/2000/svg">
<path d="M9.75 15.3766V8.62338L15.5 12.0002L9.75 15.3766ZM22.5403 6.49845C22.2873 5.51497 21.5417 4.74052 20.5953 4.47768C18.8796 4 12 4 12 4C12 4 5.12041 4 3.40474 4.47768C2.4582 4.74052 1.7127 5.51497 1.45972 6.49845C1 8.28094 1 12 1 12C1 12 1 15.719 1.45972 17.5016C1.7127 18.485 2.4582 19.2595 3.40474 19.5224C5.12041 20 12 20 12 20C12 20 18.8796 20 20.5953 19.5224C21.5417 19.2595 22.2873 18.485 22.5403 17.5016C23 15.719 23 12 23 12C23 12 23 8.28094 22.5403 6.49845Z" fill="white"/>
</svg>
